<?xml version="1.0" encoding="UTF-8"?>
<svg width="1200pt" height="1200pt" version="1.1" viewBox="0 0 1200 1200" xmlns="http://www.w3.org/2000/svg">
 <path transform="scale(12)" d="m95 50c0 25-20 45-45 45s-45-20-45-45 20-45 45-45 45 20 45 45z" fill="none" stroke="#000" stroke-width="10"/>
 <path d="m395.18 663.7v248.3h213.67c172.19 0 291.16-133.77 291.16-306.88s-118.96-305.12-291.16-305.12h-213.67v244.8h-83.176v118.9zm108.82-119.41v-124.29h96.219c100.19 0 167.78 76.691 167.78 186.88 0 110.19-67.59 185.12-167.78 185.12h-96.219v-127.82h120.87v-119.89z" fill-rule="evenodd"/>
</svg>
